<svg width="111" height="39" viewBox="0 0 111 39" fill="none" xmlns="http://www.w3.org/2000/svg">
<path d="M3.8149 7.04785C2.00691 7.04785 0.541016 5.58196 0.541016 3.77447C0.541016 1.96599 2.00691 0.500592 3.8149 0.500592C5.62288 0.500592 7.08828 1.96599 7.08828 3.77447C7.08828 5.58196 5.62288 7.04785 3.8149 7.04785Z" fill="#B466FB"/>
<path d="M38.606 10.3974C33.3791 10.878 29.0394 14.428 27.4175 19.2328L30.2872 22.4881L34.6884 27.4715C33.8047 26.3582 33.277 24.9473 33.277 23.4159C33.277 19.7999 36.2088 16.8686 39.8243 16.8686C43.4398 16.8686 46.3721 19.7999 46.3721 23.4159C46.3721 26.9003 43.6473 29.7521 40.2139 29.9521C45.4548 29.7521 49.6455 25.4349 49.6455 20.142C49.6455 15.1697 45.9495 11.0596 41.1517 10.4124C41.1447 10.4089 41.1337 10.4089 41.1232 10.4089C40.69 10.3654 40.2534 10.3429 39.8138 10.3429C39.4062 10.3429 39.0026 10.3614 38.606 10.3974Z" fill="url(#paint0_linear_3568_50652)"/>
<path d="M0.577637 10.3212V36.4738H12.8314C13.0975 36.4993 13.3626 36.5098 13.6356 36.5098C14.1808 36.5098 14.7119 36.4668 15.2326 36.3792C20.2919 35.7751 24.4606 32.2836 26.0425 27.5954L29.909 31.978L30.0035 32.0836C32.4007 34.7973 35.9071 36.5098 39.8137 36.5098C47.0406 36.5098 52.8972 30.6537 52.8972 23.4268C52.8972 16.6499 47.7503 11.0809 41.1515 10.4123C45.9493 11.0594 49.6453 15.1695 49.6453 20.1419C49.6453 25.4343 45.4547 29.752 40.2138 29.952C40.0863 29.959 39.9552 29.963 39.8242 29.963C39.6931 29.963 39.5621 29.959 39.4351 29.952C37.6821 29.85 36.1102 29.0538 34.9979 27.8389C34.8889 27.7219 34.7828 27.5989 34.6883 27.4713L30.2871 22.488L27.4174 19.2326L23.7689 15.1005L23.7474 15.0755C21.3502 12.1727 17.7237 10.3212 13.6647 10.3212H0.577637ZM7.08839 23.4157C7.08839 19.9308 9.81262 17.0795 13.246 16.879C13.3741 16.872 13.5046 16.8685 13.6356 16.8685C13.7662 16.8685 13.8972 16.872 14.0248 16.879C15.9343 16.992 17.6257 17.9233 18.7495 19.3272C19.6448 20.4475 20.1829 21.8698 20.1829 23.4157C20.1829 27.0312 17.2511 29.963 13.6356 29.963C10.0202 29.963 7.08839 27.0312 7.08839 23.4157Z" fill="url(#paint1_linear_3568_50652)"/>
<path d="M61 8.89C61 9.06333 60.9367 9.21 60.81 9.33C60.6833 9.44333 60.5367 9.5 60.37 9.5C60.1833 9.5 60.0333 9.44333 59.92 9.33C59.8067 9.21 59.75 9.06333 59.75 8.89V3.11C59.75 2.93667 59.81 2.79333 59.93 2.68C60.05 2.56 60.2033 2.5 60.39 2.5C60.55 2.5 60.69 2.56 60.81 2.68C60.9367 2.79333 61 2.93667 61 3.11V8.89ZM65.2639 4.05C65.7572 4.05 66.1306 4.15333 66.3839 4.36C66.6439 4.56667 66.8206 4.84333 66.9139 5.19C67.0139 5.53 67.0639 5.91 67.0639 6.33V8.89C67.0639 9.06333 67.0072 9.21 66.8939 9.33C66.7806 9.44333 66.6372 9.5 66.4639 9.5C66.2906 9.5 66.1472 9.44333 66.0339 9.33C65.9206 9.21 65.8639 9.06333 65.8639 8.89V6.33C65.8639 6.11 65.8339 5.91333 65.7739 5.74C65.7206 5.56 65.6206 5.41667 65.4739 5.31C65.3272 5.20333 65.1172 5.15 64.8439 5.15C64.5772 5.15 64.3506 5.20333 64.1639 5.31C63.9839 5.41667 63.8439 5.56 63.7439 5.74C63.6506 5.91333 63.6039 6.11 63.6039 6.33V8.89C63.6039 9.06333 63.5472 9.21 63.4339 9.33C63.3206 9.44333 63.1772 9.5 63.0039 9.5C62.8306 9.5 62.6872 9.44333 62.5739 9.33C62.4606 9.21 62.4039 9.06333 62.4039 8.89V4.76C62.4039 4.58667 62.4606 4.44333 62.5739 4.33C62.6872 4.21 62.8306 4.15 63.0039 4.15C63.1772 4.15 63.3206 4.21 63.4339 4.33C63.5472 4.44333 63.6039 4.58667 63.6039 4.76V5.19L63.4539 5.16C63.5139 5.04667 63.6006 4.92667 63.7139 4.8C63.8272 4.66667 63.9606 4.54333 64.1139 4.43C64.2672 4.31667 64.4406 4.22667 64.6339 4.16C64.8272 4.08667 65.0372 4.05 65.2639 4.05ZM68.4209 4.25H70.7909C70.9509 4.25 71.0843 4.30333 71.1909 4.41C71.2976 4.51667 71.3509 4.65 71.3509 4.81C71.3509 4.96333 71.2976 5.09333 71.1909 5.2C71.0843 5.3 70.9509 5.35 70.7909 5.35H68.4209C68.2609 5.35 68.1276 5.29667 68.0209 5.19C67.9143 5.08333 67.8609 4.95 67.8609 4.79C67.8609 4.63667 67.9143 4.51 68.0209 4.41C68.1276 4.30333 68.2609 4.25 68.4209 4.25ZM69.4909 3C69.6643 3 69.8043 3.06 69.9109 3.18C70.0243 3.29333 70.0809 3.43667 70.0809 3.61V8.06C70.0809 8.15333 70.0976 8.23 70.1309 8.29C70.1709 8.35 70.2209 8.39333 70.2809 8.42C70.3476 8.44667 70.4176 8.46 70.4909 8.46C70.5709 8.46 70.6443 8.44667 70.7109 8.42C70.7776 8.38667 70.8543 8.37 70.9409 8.37C71.0343 8.37 71.1176 8.41333 71.1909 8.5C71.2709 8.58667 71.3109 8.70667 71.3109 8.86C71.3109 9.04667 71.2076 9.2 71.0009 9.32C70.8009 9.44 70.5843 9.5 70.3509 9.5C70.2109 9.5 70.0543 9.49 69.8809 9.47C69.7143 9.44333 69.5543 9.38667 69.4009 9.3C69.2543 9.20667 69.1309 9.06667 69.0309 8.88C68.9309 8.69333 68.8809 8.43667 68.8809 8.11V3.61C68.8809 3.43667 68.9376 3.29333 69.0509 3.18C69.1709 3.06 69.3176 3 69.4909 3ZM74.9239 9.6C74.3572 9.6 73.8639 9.48333 73.4439 9.25C73.0306 9.01 72.7106 8.68667 72.4839 8.28C72.2639 7.87333 72.1539 7.41333 72.1539 6.9C72.1539 6.3 72.2739 5.79 72.5139 5.37C72.7606 4.94333 73.0806 4.61667 73.4739 4.39C73.8672 4.16333 74.2839 4.05 74.7239 4.05C75.0639 4.05 75.3839 4.12 75.6839 4.26C75.9906 4.4 76.2606 4.59333 76.4939 4.84C76.7272 5.08 76.9106 5.36 77.0439 5.68C77.1839 6 77.2539 6.34 77.2539 6.7C77.2472 6.86 77.1839 6.99 77.0639 7.09C76.9439 7.19 76.8039 7.24 76.6439 7.24H72.8239L72.5239 6.24H76.1939L75.9739 6.44V6.17C75.9606 5.97667 75.8906 5.80333 75.7639 5.65C75.6439 5.49667 75.4906 5.37667 75.3039 5.29C75.1239 5.19667 74.9306 5.15 74.7239 5.15C74.5239 5.15 74.3372 5.17667 74.1639 5.23C73.9906 5.28333 73.8406 5.37333 73.7139 5.5C73.5872 5.62667 73.4872 5.79667 73.4139 6.01C73.3406 6.22333 73.3039 6.49333 73.3039 6.82C73.3039 7.18 73.3772 7.48667 73.5239 7.74C73.6772 7.98667 73.8706 8.17667 74.1039 8.31C74.3439 8.43667 74.5972 8.5 74.8639 8.5C75.1106 8.5 75.3072 8.48 75.4539 8.44C75.6006 8.4 75.7172 8.35333 75.8039 8.3C75.8972 8.24 75.9806 8.19 76.0539 8.15C76.1739 8.09 76.2872 8.06 76.3939 8.06C76.5406 8.06 76.6606 8.11 76.7539 8.21C76.8539 8.31 76.9039 8.42667 76.9039 8.56C76.9039 8.74 76.8106 8.90333 76.6239 9.05C76.4506 9.19667 76.2072 9.32667 75.8939 9.44C75.5806 9.54667 75.2572 9.6 74.9239 9.6ZM80.4735 4.05C80.7535 4.05 81.0102 4.09333 81.2435 4.18C81.4768 4.26667 81.6768 4.37667 81.8435 4.51C82.0168 4.64333 82.1502 4.78 82.2435 4.92C82.3435 5.05333 82.3935 5.16667 82.3935 5.26L82.1335 5.39V4.66C82.1335 4.48667 82.1902 4.34333 82.3035 4.23C82.4168 4.11 82.5602 4.05 82.7335 4.05C82.9068 4.05 83.0502 4.10667 83.1635 4.22C83.2768 4.33333 83.3335 4.48 83.3335 4.66V9.11C83.3335 9.69 83.2068 10.1533 82.9535 10.5C82.7068 10.8533 82.3802 11.1067 81.9735 11.26C81.5668 11.42 81.1302 11.5 80.6635 11.5C80.5302 11.5 80.3568 11.4833 80.1435 11.45C79.9302 11.4167 79.7268 11.3767 79.5335 11.33C79.3402 11.2833 79.1935 11.24 79.0935 11.2C78.8935 11.1133 78.7535 11.0033 78.6735 10.87C78.6002 10.7433 78.5868 10.6067 78.6335 10.46C78.6935 10.2667 78.7902 10.1333 78.9235 10.06C79.0568 9.99333 79.1968 9.98667 79.3435 10.04C79.4102 10.06 79.5202 10.1 79.6735 10.16C79.8268 10.22 79.9935 10.2733 80.1735 10.32C80.3602 10.3733 80.5235 10.4 80.6635 10.4C81.1635 10.4 81.5335 10.3 81.7735 10.1C82.0135 9.9 82.1335 9.62333 82.1335 9.27V8.4L82.2535 8.49C82.2535 8.57667 82.2068 8.68333 82.1135 8.81C82.0268 8.93 81.9035 9.05 81.7435 9.17C81.5902 9.29 81.4068 9.39333 81.1935 9.48C80.9802 9.56 80.7535 9.6 80.5135 9.6C80.0402 9.6 79.6135 9.48333 79.2335 9.25C78.8535 9.01 78.5535 8.68333 78.3335 8.27C78.1135 7.85 78.0035 7.37 78.0035 6.83C78.0035 6.28333 78.1135 5.80333 78.3335 5.39C78.5535 4.97 78.8502 4.64333 79.2235 4.41C79.5968 4.17 80.0135 4.05 80.4735 4.05ZM80.6635 5.15C80.3635 5.15 80.1002 5.22333 79.8735 5.37C79.6468 5.51667 79.4702 5.71667 79.3435 5.97C79.2168 6.22333 79.1535 6.51 79.1535 6.83C79.1535 7.14333 79.2168 7.42667 79.3435 7.68C79.4702 7.93333 79.6468 8.13333 79.8735 8.28C80.1002 8.42667 80.3635 8.5 80.6635 8.5C80.9702 8.5 81.2368 8.42667 81.4635 8.28C81.6902 8.13333 81.8668 7.93333 81.9935 7.68C82.1202 7.42667 82.1835 7.14333 82.1835 6.83C82.1835 6.51 82.1202 6.22333 81.9935 5.97C81.8668 5.71667 81.6902 5.51667 81.4635 5.37C81.2368 5.22333 80.9702 5.15 80.6635 5.15ZM85.2305 9.5C85.0571 9.5 84.9138 9.44333 84.8005 9.33C84.6871 9.21 84.6305 9.06333 84.6305 8.89V4.76C84.6305 4.58667 84.6871 4.44333 84.8005 4.33C84.9138 4.21 85.0571 4.15 85.2305 4.15C85.4038 4.15 85.5471 4.21 85.6605 4.33C85.7738 4.44333 85.8305 4.58667 85.8305 4.76V5.7L85.7605 5.03C85.8338 4.87 85.9271 4.73 86.0405 4.61C86.1605 4.48333 86.2938 4.38 86.4405 4.3C86.5871 4.21333 86.7438 4.15 86.9105 4.11C87.0771 4.07 87.2438 4.05 87.4105 4.05C87.6105 4.05 87.7771 4.10667 87.9105 4.22C88.0505 4.33333 88.1205 4.46667 88.1205 4.62C88.1205 4.84 88.0638 5 87.9505 5.1C87.8371 5.19333 87.7138 5.24 87.5805 5.24C87.4538 5.24 87.3371 5.21667 87.2305 5.17C87.1305 5.12333 87.0138 5.1 86.8805 5.1C86.7605 5.1 86.6371 5.13 86.5105 5.19C86.3905 5.24333 86.2771 5.33 86.1705 5.45C86.0705 5.57 85.9871 5.72 85.9205 5.9C85.8605 6.07333 85.8305 6.28 85.8305 6.52V8.89C85.8305 9.06333 85.7738 9.21 85.6605 9.33C85.5471 9.44333 85.4038 9.5 85.2305 9.5ZM93.2292 4.05C93.4026 4.05 93.5459 4.10667 93.6592 4.22C93.7726 4.33333 93.8292 4.48 93.8292 4.66V8.89C93.8292 9.06333 93.7726 9.21 93.6592 9.33C93.5459 9.44333 93.4026 9.5 93.2292 9.5C93.0559 9.5 92.9126 9.44333 92.7992 9.33C92.6859 9.21 92.6292 9.06333 92.6292 8.89V8.4L92.8492 8.49C92.8492 8.57667 92.8026 8.68333 92.7092 8.81C92.6159 8.93 92.4892 9.05 92.3292 9.17C92.1692 9.29 91.9792 9.39333 91.7592 9.48C91.5459 9.56 91.3126 9.6 91.0592 9.6C90.5992 9.6 90.1826 9.48333 89.8092 9.25C89.4359 9.01 89.1392 8.68333 88.9192 8.27C88.7059 7.85 88.5992 7.37 88.5992 6.83C88.5992 6.28333 88.7059 5.80333 88.9192 5.39C89.1392 4.97 89.4326 4.64333 89.7992 4.41C90.1659 4.17 90.5726 4.05 91.0192 4.05C91.3059 4.05 91.5692 4.09333 91.8092 4.18C92.0492 4.26667 92.2559 4.37667 92.4292 4.51C92.6092 4.64333 92.7459 4.78 92.8392 4.92C92.9392 5.05333 92.9892 5.16667 92.9892 5.26L92.6292 5.39V4.66C92.6292 4.48667 92.6859 4.34333 92.7992 4.23C92.9126 4.11 93.0559 4.05 93.2292 4.05ZM91.2092 8.5C91.5026 8.5 91.7592 8.42667 91.9792 8.28C92.1992 8.13333 92.3692 7.93333 92.4892 7.68C92.6159 7.42667 92.6792 7.14333 92.6792 6.83C92.6792 6.51 92.6159 6.22333 92.4892 5.97C92.3692 5.71667 92.1992 5.51667 91.9792 5.37C91.7592 5.22333 91.5026 5.15 91.2092 5.15C90.9226 5.15 90.6692 5.22333 90.4492 5.37C90.2292 5.51667 90.0559 5.71667 89.9292 5.97C89.8092 6.22333 89.7492 6.51 89.7492 6.83C89.7492 7.14333 89.8092 7.42667 89.9292 7.68C90.0559 7.93333 90.2292 8.13333 90.4492 8.28C90.6692 8.42667 90.9226 8.5 91.2092 8.5ZM95.1885 4.25H97.5585C97.7185 4.25 97.8518 4.30333 97.9585 4.41C98.0652 4.51667 98.1185 4.65 98.1185 4.81C98.1185 4.96333 98.0652 5.09333 97.9585 5.2C97.8518 5.3 97.7185 5.35 97.5585 5.35H95.1885C95.0285 5.35 94.8952 5.29667 94.7885 5.19C94.6818 5.08333 94.6285 4.95 94.6285 4.79C94.6285 4.63667 94.6818 4.51 94.7885 4.41C94.8952 4.30333 95.0285 4.25 95.1885 4.25ZM96.2585 3C96.4318 3 96.5718 3.06 96.6785 3.18C96.7918 3.29333 96.8485 3.43667 96.8485 3.61V8.06C96.8485 8.15333 96.8652 8.23 96.8985 8.29C96.9385 8.35 96.9885 8.39333 97.0485 8.42C97.1152 8.44667 97.1852 8.46 97.2585 8.46C97.3385 8.46 97.4118 8.44667 97.4785 8.42C97.5452 8.38667 97.6218 8.37 97.7085 8.37C97.8018 8.37 97.8852 8.41333 97.9585 8.5C98.0385 8.58667 98.0785 8.70667 98.0785 8.86C98.0785 9.04667 97.9752 9.2 97.7685 9.32C97.5685 9.44 97.3518 9.5 97.1185 9.5C96.9785 9.5 96.8218 9.49 96.6485 9.47C96.4818 9.44333 96.3218 9.38667 96.1685 9.3C96.0218 9.20667 95.8985 9.06667 95.7985 8.88C95.6985 8.69333 95.6485 8.43667 95.6485 8.11V3.61C95.6485 3.43667 95.7052 3.29333 95.8185 3.18C95.9385 3.06 96.0852 3 96.2585 3ZM101.691 9.6C101.125 9.6 100.631 9.48333 100.211 9.25C99.7982 9.01 99.4782 8.68667 99.2515 8.28C99.0315 7.87333 98.9215 7.41333 98.9215 6.9C98.9215 6.3 99.0415 5.79 99.2815 5.37C99.5282 4.94333 99.8482 4.61667 100.241 4.39C100.635 4.16333 101.051 4.05 101.491 4.05C101.831 4.05 102.151 4.12 102.451 4.26C102.758 4.4 103.028 4.59333 103.261 4.84C103.495 5.08 103.678 5.36 103.811 5.68C103.951 6 104.021 6.34 104.021 6.7C104.015 6.86 103.951 6.99 103.831 7.09C103.711 7.19 103.571 7.24 103.411 7.24H99.5915L99.2915 6.24H102.961L102.741 6.44V6.17C102.728 5.97667 102.658 5.80333 102.531 5.65C102.411 5.49667 102.258 5.37667 102.071 5.29C101.891 5.19667 101.698 5.15 101.491 5.15C101.291 5.15 101.105 5.17667 100.931 5.23C100.758 5.28333 100.608 5.37333 100.481 5.5C100.355 5.62667 100.255 5.79667 100.181 6.01C100.108 6.22333 100.071 6.49333 100.071 6.82C100.071 7.18 100.145 7.48667 100.291 7.74C100.445 7.98667 100.638 8.17667 100.871 8.31C101.111 8.43667 101.365 8.5 101.631 8.5C101.878 8.5 102.075 8.48 102.221 8.44C102.368 8.4 102.485 8.35333 102.571 8.3C102.665 8.24 102.748 8.19 102.821 8.15C102.941 8.09 103.055 8.06 103.161 8.06C103.308 8.06 103.428 8.11 103.521 8.21C103.621 8.31 103.671 8.42667 103.671 8.56C103.671 8.74 103.578 8.90333 103.391 9.05C103.218 9.19667 102.975 9.32667 102.661 9.44C102.348 9.54667 102.025 9.6 101.691 9.6ZM109.45 2.1C109.623 2.1 109.767 2.15667 109.88 2.27C109.993 2.38333 110.05 2.53 110.05 2.71V8.89C110.05 9.06333 109.993 9.21 109.88 9.33C109.767 9.44333 109.623 9.5 109.45 9.5C109.277 9.5 109.133 9.44333 109.02 9.33C108.907 9.21 108.85 9.06333 108.85 8.89V8.4L109.07 8.49C109.07 8.57667 109.023 8.68333 108.93 8.81C108.837 8.93 108.71 9.05 108.55 9.17C108.39 9.29 108.2 9.39333 107.98 9.48C107.767 9.56 107.533 9.6 107.28 9.6C106.82 9.6 106.403 9.48333 106.03 9.25C105.657 9.01 105.36 8.68333 105.14 8.27C104.927 7.85 104.82 7.37 104.82 6.83C104.82 6.28333 104.927 5.80333 105.14 5.39C105.36 4.97 105.653 4.64333 106.02 4.41C106.387 4.17 106.793 4.05 107.24 4.05C107.527 4.05 107.79 4.09333 108.03 4.18C108.27 4.26667 108.477 4.37667 108.65 4.51C108.83 4.64333 108.967 4.78 109.06 4.92C109.16 5.05333 109.21 5.16667 109.21 5.26L108.85 5.39V2.71C108.85 2.53667 108.907 2.39333 109.02 2.28C109.133 2.16 109.277 2.1 109.45 2.1ZM107.43 8.5C107.723 8.5 107.98 8.42667 108.2 8.28C108.42 8.13333 108.59 7.93333 108.71 7.68C108.837 7.42667 108.9 7.14333 108.9 6.83C108.9 6.51 108.837 6.22333 108.71 5.97C108.59 5.71667 108.42 5.51667 108.2 5.37C107.98 5.22333 107.723 5.15 107.43 5.15C107.143 5.15 106.89 5.22333 106.67 5.37C106.45 5.51667 106.277 5.71667 106.15 5.97C106.03 6.22333 105.97 6.51 105.97 6.83C105.97 7.14333 106.03 7.42667 106.15 7.68C106.277 7.93333 106.45 8.13333 106.67 8.28C106.89 8.42667 107.143 8.5 107.43 8.5ZM62.75 15.5C63.23 15.5 63.6567 15.59 64.03 15.77C64.4033 15.95 64.7167 16.2033 64.97 16.53C65.23 16.85 65.4233 17.2233 65.55 17.65C65.6833 18.07 65.75 18.52 65.75 19C65.75 19.6467 65.6333 20.2367 65.4 20.77C65.1667 21.2967 64.8267 21.7167 64.38 22.03C63.94 22.3433 63.3967 22.5 62.75 22.5H60.36C60.1867 22.5 60.04 22.4433 59.92 22.33C59.8067 22.21 59.75 22.0633 59.75 21.89V16.11C59.75 15.9367 59.8067 15.7933 59.92 15.68C60.04 15.56 60.1867 15.5 60.36 15.5H62.75ZM62.65 21.35C63.07 21.35 63.4133 21.2433 63.68 21.03C63.9467 20.81 64.14 20.5233 64.26 20.17C64.3867 19.81 64.45 19.42 64.45 19C64.45 18.6867 64.4133 18.39 64.34 18.11C64.2733 17.8233 64.1667 17.5733 64.02 17.36C63.8733 17.14 63.6867 16.9667 63.46 16.84C63.2333 16.7133 62.9633 16.65 62.65 16.65H60.9L61 16.56V21.46L60.94 21.35H62.65ZM67.9284 21.89C67.9284 22.0633 67.8718 22.21 67.7584 22.33C67.6451 22.4433 67.5018 22.5 67.3284 22.5C67.1551 22.5 67.0118 22.4433 66.8984 22.33C66.7851 22.21 66.7284 22.0633 66.7284 21.89V17.76C66.7284 17.5867 66.7851 17.4433 66.8984 17.33C67.0118 17.21 67.1551 17.15 67.3284 17.15C67.5018 17.15 67.6451 17.21 67.7584 17.33C67.8718 17.4433 67.9284 17.5867 67.9284 17.76V21.89ZM67.3184 16.5C67.0918 16.5 66.9318 16.4633 66.8384 16.39C66.7451 16.3167 66.6984 16.1867 66.6984 16V15.81C66.6984 15.6167 66.7484 15.4867 66.8484 15.42C66.9551 15.3467 67.1151 15.31 67.3284 15.31C67.5618 15.31 67.7251 15.3467 67.8184 15.42C67.9118 15.4933 67.9584 15.6233 67.9584 15.81V16C67.9584 16.1933 67.9084 16.3267 67.8084 16.4C67.7084 16.4667 67.5451 16.5 67.3184 16.5ZM71.3817 17.05C71.6617 17.05 71.9184 17.0933 72.1517 17.18C72.3851 17.2667 72.5851 17.3767 72.7517 17.51C72.9251 17.6433 73.0584 17.78 73.1517 17.92C73.2517 18.0533 73.3017 18.1667 73.3017 18.26L73.0417 18.39V17.66C73.0417 17.4867 73.0984 17.3433 73.2117 17.23C73.3251 17.11 73.4684 17.05 73.6417 17.05C73.8151 17.05 73.9584 17.1067 74.0717 17.22C74.1851 17.3333 74.2417 17.48 74.2417 17.66V22.11C74.2417 22.69 74.1151 23.1533 73.8617 23.5C73.6151 23.8533 73.2884 24.1067 72.8817 24.26C72.4751 24.42 72.0384 24.5 71.5717 24.5C71.4384 24.5 71.2651 24.4833 71.0517 24.45C70.8384 24.4167 70.6351 24.3767 70.4417 24.33C70.2484 24.2833 70.1017 24.24 70.0017 24.2C69.8017 24.1133 69.6617 24.0033 69.5817 23.87C69.5084 23.7433 69.4951 23.6067 69.5417 23.46C69.6017 23.2667 69.6984 23.1333 69.8317 23.06C69.9651 22.9933 70.1051 22.9867 70.2517 23.04C70.3184 23.06 70.4284 23.1 70.5817 23.16C70.7351 23.22 70.9017 23.2733 71.0817 23.32C71.2684 23.3733 71.4317 23.4 71.5717 23.4C72.0717 23.4 72.4417 23.3 72.6817 23.1C72.9217 22.9 73.0417 22.6233 73.0417 22.27V21.4L73.1617 21.49C73.1617 21.5767 73.1151 21.6833 73.0217 21.81C72.9351 21.93 72.8117 22.05 72.6517 22.17C72.4984 22.29 72.3151 22.3933 72.1017 22.48C71.8884 22.56 71.6617 22.6 71.4217 22.6C70.9484 22.6 70.5217 22.4833 70.1417 22.25C69.7617 22.01 69.4617 21.6833 69.2417 21.27C69.0217 20.85 68.9117 20.37 68.9117 19.83C68.9117 19.2833 69.0217 18.8033 69.2417 18.39C69.4617 17.97 69.7584 17.6433 70.1317 17.41C70.5051 17.17 70.9217 17.05 71.3817 17.05ZM71.5717 18.15C71.2717 18.15 71.0084 18.2233 70.7817 18.37C70.5551 18.5167 70.3784 18.7167 70.2517 18.97C70.1251 19.2233 70.0617 19.51 70.0617 19.83C70.0617 20.1433 70.1251 20.4267 70.2517 20.68C70.3784 20.9333 70.5551 21.1333 70.7817 21.28C71.0084 21.4267 71.2717 21.5 71.5717 21.5C71.8784 21.5 72.1451 21.4267 72.3717 21.28C72.5984 21.1333 72.7751 20.9333 72.9017 20.68C73.0284 20.4267 73.0917 20.1433 73.0917 19.83C73.0917 19.51 73.0284 19.2233 72.9017 18.97C72.7751 18.7167 72.5984 18.5167 72.3717 18.37C72.1451 18.2233 71.8784 18.15 71.5717 18.15ZM76.6687 21.89C76.6687 22.0633 76.612 22.21 76.4987 22.33C76.3853 22.4433 76.242 22.5 76.0687 22.5C75.8953 22.5 75.752 22.4433 75.6387 22.33C75.5253 22.21 75.4687 22.0633 75.4687 21.89V17.76C75.4687 17.5867 75.5253 17.4433 75.6387 17.33C75.752 17.21 75.8953 17.15 76.0687 17.15C76.242 17.15 76.3853 17.21 76.4987 17.33C76.612 17.4433 76.6687 17.5867 76.6687 17.76V21.89ZM76.0587 16.5C75.832 16.5 75.672 16.4633 75.5787 16.39C75.4853 16.3167 75.4387 16.1867 75.4387 16V15.81C75.4387 15.6167 75.4887 15.4867 75.5887 15.42C75.6953 15.3467 75.8553 15.31 76.0687 15.31C76.302 15.31 76.4653 15.3467 76.5587 15.42C76.652 15.4933 76.6987 15.6233 76.6987 15.81V16C76.6987 16.1933 76.6487 16.3267 76.5487 16.4C76.4487 16.4667 76.2853 16.5 76.0587 16.5ZM77.962 17.25H80.332C80.492 17.25 80.6253 17.3033 80.732 17.41C80.8386 17.5167 80.892 17.65 80.892 17.81C80.892 17.9633 80.8386 18.0933 80.732 18.2C80.6253 18.3 80.492 18.35 80.332 18.35H77.962C77.802 18.35 77.6686 18.2967 77.562 18.19C77.4553 18.0833 77.402 17.95 77.402 17.79C77.402 17.6367 77.4553 17.51 77.562 17.41C77.6686 17.3033 77.802 17.25 77.962 17.25ZM79.032 16C79.2053 16 79.3453 16.06 79.452 16.18C79.5653 16.2933 79.622 16.4367 79.622 16.61V21.06C79.622 21.1533 79.6386 21.23 79.672 21.29C79.712 21.35 79.762 21.3933 79.822 21.42C79.8886 21.4467 79.9586 21.46 80.032 21.46C80.112 21.46 80.1853 21.4467 80.252 21.42C80.3186 21.3867 80.3953 21.37 80.482 21.37C80.5753 21.37 80.6586 21.4133 80.732 21.5C80.812 21.5867 80.852 21.7067 80.852 21.86C80.852 22.0467 80.7486 22.2 80.542 22.32C80.342 22.44 80.1253 22.5 79.892 22.5C79.752 22.5 79.5953 22.49 79.422 22.47C79.2553 22.4433 79.0953 22.3867 78.942 22.3C78.7953 22.2067 78.672 22.0667 78.572 21.88C78.472 21.6933 78.422 21.4367 78.422 21.11V16.61C78.422 16.4367 78.4786 16.2933 78.592 16.18C78.712 16.06 78.8586 16 79.032 16ZM86.3738 17.05C86.5471 17.05 86.6904 17.1067 86.8038 17.22C86.9171 17.3333 86.9738 17.48 86.9738 17.66V21.89C86.9738 22.0633 86.9171 22.21 86.8038 22.33C86.6904 22.4433 86.5471 22.5 86.3738 22.5C86.2004 22.5 86.0571 22.4433 85.9438 22.33C85.8304 22.21 85.7738 22.0633 85.7738 21.89V21.4L85.9938 21.49C85.9938 21.5767 85.9471 21.6833 85.8538 21.81C85.7604 21.93 85.6338 22.05 85.4738 22.17C85.3138 22.29 85.1238 22.3933 84.9038 22.48C84.6904 22.56 84.4571 22.6 84.2038 22.6C83.7438 22.6 83.3271 22.4833 82.9538 22.25C82.5804 22.01 82.2838 21.6833 82.0638 21.27C81.8504 20.85 81.7438 20.37 81.7438 19.83C81.7438 19.2833 81.8504 18.8033 82.0638 18.39C82.2838 17.97 82.5771 17.6433 82.9438 17.41C83.3104 17.17 83.7171 17.05 84.1638 17.05C84.4504 17.05 84.7138 17.0933 84.9538 17.18C85.1938 17.2667 85.4004 17.3767 85.5738 17.51C85.7538 17.6433 85.8904 17.78 85.9838 17.92C86.0838 18.0533 86.1338 18.1667 86.1338 18.26L85.7738 18.39V17.66C85.7738 17.4867 85.8304 17.3433 85.9438 17.23C86.0571 17.11 86.2004 17.05 86.3738 17.05ZM84.3538 21.5C84.6471 21.5 84.9038 21.4267 85.1238 21.28C85.3438 21.1333 85.5138 20.9333 85.6338 20.68C85.7604 20.4267 85.8238 20.1433 85.8238 19.83C85.8238 19.51 85.7604 19.2233 85.6338 18.97C85.5138 18.7167 85.3438 18.5167 85.1238 18.37C84.9038 18.2233 84.6471 18.15 84.3538 18.15C84.0671 18.15 83.8138 18.2233 83.5938 18.37C83.3738 18.5167 83.2004 18.7167 83.0738 18.97C82.9538 19.2233 82.8938 19.51 82.8938 19.83C82.8938 20.1433 82.9538 20.4267 83.0738 20.68C83.2004 20.9333 83.3738 21.1333 83.5938 21.28C83.8138 21.4267 84.0671 21.5 84.3538 21.5ZM89.573 21.89C89.573 22.0633 89.513 22.21 89.393 22.33C89.2797 22.4433 89.1364 22.5 88.963 22.5C88.7964 22.5 88.6564 22.4433 88.543 22.33C88.4297 22.21 88.373 22.0633 88.373 21.89V15.71C88.373 15.5367 88.4297 15.3933 88.543 15.28C88.663 15.16 88.8097 15.1 88.983 15.1C89.1564 15.1 89.2964 15.16 89.403 15.28C89.5164 15.3933 89.573 15.5367 89.573 15.71V21.89ZM66.19 32C66.19 32.5 66.1067 32.9667 65.94 33.4C65.7733 33.8333 65.5367 34.2167 65.23 34.55C64.93 34.8767 64.57 35.1333 64.15 35.32C63.7367 35.5067 63.2833 35.6 62.79 35.6C62.2967 35.6 61.8433 35.5067 61.43 35.32C61.0167 35.1333 60.6567 34.8767 60.35 34.55C60.05 34.2167 59.8167 33.8333 59.65 33.4C59.4833 32.9667 59.4 32.5 59.4 32C59.4 31.5 59.4833 31.0333 59.65 30.6C59.8167 30.1667 60.05 29.7867 60.35 29.46C60.6567 29.1267 61.0167 28.8667 61.43 28.68C61.8433 28.4933 62.2967 28.4 62.79 28.4C63.2833 28.4 63.7367 28.4933 64.15 28.68C64.57 28.8667 64.93 29.1267 65.23 29.46C65.5367 29.7867 65.7733 30.1667 65.94 30.6C66.1067 31.0333 66.19 31.5 66.19 32ZM64.89 32C64.89 31.5533 64.8 31.15 64.62 30.79C64.44 30.4233 64.1933 30.1333 63.88 29.92C63.5667 29.7067 63.2033 29.6 62.79 29.6C62.3767 29.6 62.0133 29.7067 61.7 29.92C61.3867 30.1333 61.14 30.42 60.96 30.78C60.7867 31.14 60.7 31.5467 60.7 32C60.7 32.4467 60.7867 32.8533 60.96 33.22C61.14 33.58 61.3867 33.8667 61.7 34.08C62.0133 34.2933 62.3767 34.4 62.79 34.4C63.2033 34.4 63.5667 34.2933 63.88 34.08C64.1933 33.8667 64.44 33.58 64.62 33.22C64.8 32.8533 64.89 32.4467 64.89 32ZM70.0079 30.05C70.4746 30.05 70.8912 30.17 71.2579 30.41C71.6312 30.6433 71.9246 30.9667 72.1379 31.38C72.3579 31.7933 72.4679 32.2733 72.4679 32.82C72.4679 33.3667 72.3579 33.85 72.1379 34.27C71.9246 34.6833 71.6346 35.01 71.2679 35.25C70.9079 35.4833 70.5012 35.6 70.0479 35.6C69.7812 35.6 69.5312 35.5567 69.2979 35.47C69.0646 35.3833 68.8579 35.2733 68.6779 35.14C68.5046 35.0067 68.3679 34.8733 68.2679 34.74C68.1746 34.6 68.1279 34.4833 68.1279 34.39L68.4379 34.26V36.89C68.4379 37.0633 68.3812 37.2067 68.2679 37.32C68.1546 37.44 68.0112 37.5 67.8379 37.5C67.6646 37.5 67.5212 37.4433 67.4079 37.33C67.2946 37.2167 67.2379 37.07 67.2379 36.89V30.76C67.2379 30.5867 67.2946 30.4433 67.4079 30.33C67.5212 30.21 67.6646 30.15 67.8379 30.15C68.0112 30.15 68.1546 30.21 68.2679 30.33C68.3812 30.4433 68.4379 30.5867 68.4379 30.76V31.25L68.2679 31.16C68.2679 31.0733 68.3146 30.97 68.4079 30.85C68.5012 30.7233 68.6279 30.6 68.7879 30.48C68.9479 30.3533 69.1312 30.25 69.3379 30.17C69.5512 30.09 69.7746 30.05 70.0079 30.05ZM69.8579 31.15C69.5646 31.15 69.3079 31.2233 69.0879 31.37C68.8679 31.5167 68.6946 31.7167 68.5679 31.97C68.4479 32.2167 68.3879 32.5 68.3879 32.82C68.3879 33.1333 68.4479 33.42 68.5679 33.68C68.6946 33.9333 68.8679 34.1333 69.0879 34.28C69.3079 34.4267 69.5646 34.5 69.8579 34.5C70.1512 34.5 70.4046 34.4267 70.6179 34.28C70.8379 34.1333 71.0079 33.9333 71.1279 33.68C71.2546 33.42 71.3179 33.1333 71.3179 32.82C71.3179 32.5 71.2546 32.2167 71.1279 31.97C71.0079 31.7167 70.8379 31.5167 70.6179 31.37C70.4046 31.2233 70.1512 31.15 69.8579 31.15ZM76.0372 35.6C75.4705 35.6 74.9772 35.4833 74.5572 35.25C74.1439 35.01 73.8239 34.6867 73.5972 34.28C73.3772 33.8733 73.2672 33.4133 73.2672 32.9C73.2672 32.3 73.3872 31.79 73.6272 31.37C73.8739 30.9433 74.1939 30.6167 74.5872 30.39C74.9805 30.1633 75.3972 30.05 75.8372 30.05C76.1772 30.05 76.4972 30.12 76.7972 30.26C77.1039 30.4 77.3739 30.5933 77.6072 30.84C77.8405 31.08 78.0239 31.36 78.1572 31.68C78.2972 32 78.3672 32.34 78.3672 32.7C78.3605 32.86 78.2972 32.99 78.1772 33.09C78.0572 33.19 77.9172 33.24 77.7572 33.24H73.9372L73.6372 32.24H77.3072L77.0872 32.44V32.17C77.0739 31.9767 77.0039 31.8033 76.8772 31.65C76.7572 31.4967 76.6039 31.3767 76.4172 31.29C76.2372 31.1967 76.0439 31.15 75.8372 31.15C75.6372 31.15 75.4505 31.1767 75.2772 31.23C75.1039 31.2833 74.9539 31.3733 74.8272 31.5C74.7005 31.6267 74.6005 31.7967 74.5272 32.01C74.4539 32.2233 74.4172 32.4933 74.4172 32.82C74.4172 33.18 74.4905 33.4867 74.6372 33.74C74.7905 33.9867 74.9839 34.1767 75.2172 34.31C75.4572 34.4367 75.7105 34.5 75.9772 34.5C76.2239 34.5 76.4205 34.48 76.5672 34.44C76.7139 34.4 76.8305 34.3533 76.9172 34.3C77.0105 34.24 77.0939 34.19 77.1672 34.15C77.2872 34.09 77.4005 34.06 77.5072 34.06C77.6539 34.06 77.7739 34.11 77.8672 34.21C77.9672 34.31 78.0172 34.4267 78.0172 34.56C78.0172 34.74 77.9239 34.9033 77.7372 35.05C77.5639 35.1967 77.3205 35.3267 77.0072 35.44C76.6939 35.5467 76.3705 35.6 76.0372 35.6ZM80.0156 35.5C79.8423 35.5 79.699 35.4433 79.5856 35.33C79.4723 35.21 79.4156 35.0633 79.4156 34.89V30.76C79.4156 30.5867 79.4723 30.4433 79.5856 30.33C79.699 30.21 79.8423 30.15 80.0156 30.15C80.189 30.15 80.3323 30.21 80.4456 30.33C80.559 30.4433 80.6156 30.5867 80.6156 30.76V31.7L80.5456 31.03C80.619 30.87 80.7123 30.73 80.8256 30.61C80.9456 30.4833 81.079 30.38 81.2256 30.3C81.3723 30.2133 81.529 30.15 81.6956 30.11C81.8623 30.07 82.029 30.05 82.1956 30.05C82.3956 30.05 82.5623 30.1067 82.6956 30.22C82.8356 30.3333 82.9056 30.4667 82.9056 30.62C82.9056 30.84 82.849 31 82.7356 31.1C82.6223 31.1933 82.499 31.24 82.3656 31.24C82.239 31.24 82.1223 31.2167 82.0156 31.17C81.9156 31.1233 81.799 31.1 81.6656 31.1C81.5456 31.1 81.4223 31.13 81.2956 31.19C81.1756 31.2433 81.0623 31.33 80.9556 31.45C80.8556 31.57 80.7723 31.72 80.7056 31.9C80.6456 32.0733 80.6156 32.28 80.6156 32.52V34.89C80.6156 35.0633 80.559 35.21 80.4456 35.33C80.3323 35.4433 80.189 35.5 80.0156 35.5ZM88.0144 30.05C88.1877 30.05 88.331 30.1067 88.4444 30.22C88.5577 30.3333 88.6144 30.48 88.6144 30.66V34.89C88.6144 35.0633 88.5577 35.21 88.4444 35.33C88.331 35.4433 88.1877 35.5 88.0144 35.5C87.841 35.5 87.6977 35.4433 87.5844 35.33C87.471 35.21 87.4144 35.0633 87.4144 34.89V34.4L87.6344 34.49C87.6344 34.5767 87.5877 34.6833 87.4944 34.81C87.401 34.93 87.2744 35.05 87.1144 35.17C86.9544 35.29 86.7644 35.3933 86.5444 35.48C86.331 35.56 86.0977 35.6 85.8444 35.6C85.3844 35.6 84.9677 35.4833 84.5944 35.25C84.221 35.01 83.9244 34.6833 83.7044 34.27C83.491 33.85 83.3844 33.37 83.3844 32.83C83.3844 32.2833 83.491 31.8033 83.7044 31.39C83.9244 30.97 84.2177 30.6433 84.5844 30.41C84.951 30.17 85.3577 30.05 85.8044 30.05C86.091 30.05 86.3544 30.0933 86.5944 30.18C86.8344 30.2667 87.041 30.3767 87.2144 30.51C87.3944 30.6433 87.531 30.78 87.6244 30.92C87.7244 31.0533 87.7744 31.1667 87.7744 31.26L87.4144 31.39V30.66C87.4144 30.4867 87.471 30.3433 87.5844 30.23C87.6977 30.11 87.841 30.05 88.0144 30.05ZM85.9944 34.5C86.2877 34.5 86.5444 34.4267 86.7644 34.28C86.9844 34.1333 87.1544 33.9333 87.2744 33.68C87.401 33.4267 87.4644 33.1433 87.4644 32.83C87.4644 32.51 87.401 32.2233 87.2744 31.97C87.1544 31.7167 86.9844 31.5167 86.7644 31.37C86.5444 31.2233 86.2877 31.15 85.9944 31.15C85.7077 31.15 85.4544 31.2233 85.2344 31.37C85.0144 31.5167 84.841 31.7167 84.7144 31.97C84.5944 32.2233 84.5344 32.51 84.5344 32.83C84.5344 33.1433 84.5944 33.4267 84.7144 33.68C84.841 33.9333 85.0144 34.1333 85.2344 34.28C85.4544 34.4267 85.7077 34.5 85.9944 34.5ZM89.9737 30.25H92.3437C92.5037 30.25 92.637 30.3033 92.7437 30.41C92.8503 30.5167 92.9037 30.65 92.9037 30.81C92.9037 30.9633 92.8503 31.0933 92.7437 31.2C92.637 31.3 92.5037 31.35 92.3437 31.35H89.9737C89.8137 31.35 89.6803 31.2967 89.5737 31.19C89.467 31.0833 89.4137 30.95 89.4137 30.79C89.4137 30.6367 89.467 30.51 89.5737 30.41C89.6803 30.3033 89.8137 30.25 89.9737 30.25ZM91.0437 29C91.217 29 91.357 29.06 91.4637 29.18C91.577 29.2933 91.6337 29.4367 91.6337 29.61V34.06C91.6337 34.1533 91.6503 34.23 91.6837 34.29C91.7237 34.35 91.7737 34.3933 91.8337 34.42C91.9003 34.4467 91.9703 34.46 92.0437 34.46C92.1237 34.46 92.197 34.4467 92.2637 34.42C92.3303 34.3867 92.407 34.37 92.4937 34.37C92.587 34.37 92.6703 34.4133 92.7437 34.5C92.8237 34.5867 92.8637 34.7067 92.8637 34.86C92.8637 35.0467 92.7603 35.2 92.5537 35.32C92.3537 35.44 92.137 35.5 91.9037 35.5C91.7637 35.5 91.607 35.49 91.4337 35.47C91.267 35.4433 91.107 35.3867 90.9537 35.3C90.807 35.2067 90.6837 35.0667 90.5837 34.88C90.4837 34.6933 90.4337 34.4367 90.4337 34.11V29.61C90.4337 29.4367 90.4903 29.2933 90.6037 29.18C90.7237 29.06 90.8703 29 91.0437 29ZM95.1355 34.89C95.1355 35.0633 95.0788 35.21 94.9655 35.33C94.8521 35.4433 94.7088 35.5 94.5355 35.5C94.3621 35.5 94.2188 35.4433 94.1055 35.33C93.9921 35.21 93.9355 35.0633 93.9355 34.89V30.76C93.9355 30.5867 93.9921 30.4433 94.1055 30.33C94.2188 30.21 94.3621 30.15 94.5355 30.15C94.7088 30.15 94.8521 30.21 94.9655 30.33C95.0788 30.4433 95.1355 30.5867 95.1355 30.76V34.89ZM94.5255 29.5C94.2988 29.5 94.1388 29.4633 94.0455 29.39C93.9521 29.3167 93.9055 29.1867 93.9055 29V28.81C93.9055 28.6167 93.9555 28.4867 94.0555 28.42C94.1621 28.3467 94.3221 28.31 94.5355 28.31C94.7688 28.31 94.9321 28.3467 95.0255 28.42C95.1188 28.4933 95.1655 28.6233 95.1655 28.81V29C95.1655 29.1933 95.1155 29.3267 95.0155 29.4C94.9155 29.4667 94.7521 29.5 94.5255 29.5ZM101.559 32.83C101.559 33.3767 101.435 33.86 101.189 34.28C100.949 34.6933 100.622 35.0167 100.209 35.25C99.8021 35.4833 99.3454 35.6 98.8388 35.6C98.3321 35.6 97.8721 35.4833 97.4588 35.25C97.0521 35.0167 96.7254 34.6933 96.4788 34.28C96.2388 33.86 96.1188 33.3767 96.1188 32.83C96.1188 32.2833 96.2388 31.8033 96.4788 31.39C96.7254 30.97 97.0521 30.6433 97.4588 30.41C97.8721 30.17 98.3321 30.05 98.8388 30.05C99.3454 30.05 99.8021 30.17 100.209 30.41C100.622 30.6433 100.949 30.97 101.189 31.39C101.435 31.8033 101.559 32.2833 101.559 32.83ZM100.359 32.83C100.359 32.49 100.289 32.1967 100.149 31.95C100.015 31.6967 99.8321 31.5 99.5988 31.36C99.3721 31.22 99.1188 31.15 98.8388 31.15C98.5588 31.15 98.3021 31.22 98.0688 31.36C97.8421 31.5 97.6588 31.6967 97.5188 31.95C97.3854 32.1967 97.3188 32.49 97.3188 32.83C97.3188 33.1633 97.3854 33.4567 97.5188 33.71C97.6588 33.9567 97.8421 34.15 98.0688 34.29C98.3021 34.43 98.5588 34.5 98.8388 34.5C99.1188 34.5 99.3721 34.43 99.5988 34.29C99.8321 34.15 100.015 33.9567 100.149 33.71C100.289 33.4567 100.359 33.1633 100.359 32.83ZM105.469 30.05C105.962 30.05 106.336 30.1533 106.589 30.36C106.849 30.5667 107.026 30.8433 107.119 31.19C107.219 31.53 107.269 31.91 107.269 32.33V34.89C107.269 35.0633 107.212 35.21 107.099 35.33C106.986 35.4433 106.842 35.5 106.669 35.5C106.496 35.5 106.352 35.4433 106.239 35.33C106.126 35.21 106.069 35.0633 106.069 34.89V32.33C106.069 32.11 106.039 31.9133 105.979 31.74C105.926 31.56 105.826 31.4167 105.679 31.31C105.532 31.2033 105.322 31.15 105.049 31.15C104.782 31.15 104.556 31.2033 104.369 31.31C104.189 31.4167 104.049 31.56 103.949 31.74C103.856 31.9133 103.809 32.11 103.809 32.33V34.89C103.809 35.0633 103.752 35.21 103.639 35.33C103.526 35.4433 103.382 35.5 103.209 35.5C103.036 35.5 102.892 35.4433 102.779 35.33C102.666 35.21 102.609 35.0633 102.609 34.89V30.76C102.609 30.5867 102.666 30.4433 102.779 30.33C102.892 30.21 103.036 30.15 103.209 30.15C103.382 30.15 103.526 30.21 103.639 30.33C103.752 30.4433 103.809 30.5867 103.809 30.76V31.19L103.659 31.16C103.719 31.0467 103.806 30.9267 103.919 30.8C104.032 30.6667 104.166 30.5433 104.319 30.43C104.472 30.3167 104.646 30.2267 104.839 30.16C105.032 30.0867 105.242 30.05 105.469 30.05Z" fill="#B466FB"/>
<defs>
<linearGradient id="paint0_linear_3568_50652" x1="30.665" y1="25.4638" x2="49.6335" y2="13.8763" gradientUnits="userSpaceOnUse">
<stop stop-color="#D09FFD"/>
<stop offset="0.324407" stop-color="#D09FFD"/>
<stop offset="1" stop-color="#982EFA"/>
</linearGradient>
<linearGradient id="paint1_linear_3568_50652" x1="0.164735" y1="34.7078" x2="46.5482" y2="10.5023" gradientUnits="userSpaceOnUse">
<stop stop-color="#982EFA"/>
<stop offset="4.5e-07" stop-color="#982EFA"/>
<stop offset="0.614114" stop-color="#982EFA"/>
<stop offset="1" stop-color="#D09FFD"/>
</linearGradient>
</defs>
</svg>
